/* XPM */
static char *a163e0c2309f46d0bdb248ac6ad14faa1YQmlJuMW1YRpUT8[] = {
/* columns rows colors chars-per-pixel */
"64 64 176 2 ",
"   c None",
".  c #494C4E",
"X  c #60666B",
"o  c #72787C",
"O  c #55823B",
"+  c #5F8C3F",
"@  c #5E8842",
"#  c #658D49",
"$  c #659242",
"%  c #699547",
"&  c #6C9948",
"*  c #709F47",
"=  c #719E4B",
"-  c #708E53",
";  c #699050",
":  c #709752",
">  c #759F50",
",  c #75A34B",
"<  c #79A74F",
"1  c #7CAA4F",
"2  c #77A150",
"3  c #79A253",
"4  c #B6863E",
"5  c #DF8832",
"6  c #DC8B3B",
"7  c #DA8736",
"8  c #E0842A",
"9  c #E28C34",
"0  c #E99539",
"q  c #EB973A",
"w  c #83AF55",
"e  c #8DBA5C",
"r  c #89B55B",
"t  c #AC9A60",
"y  c #B78C7A",
"u  c #87AB61",
"i  c #8FB563",
"p  c #92B867",
"a  c #D68D47",
"s  c #DC9446",
"d  c #D08E51",
"f  c #CB915E",
"g  c #DB9959",
"h  c #E69F51",
"j  c #E9A04F",
"k  c #E9A559",
"l  c #F1AB5A",
"z  c #CB9866",
"x  c #DA987D",
"c  c #E29A7B",
"v  c #E89C7C",
"b  c #EAAA62",
"n  c #757D83",
"m  c #787D81",
"M  c #7A8186",
"N  c #7D858B",
"B  c #81898E",
"V  c #8B8B8C",
"C  c #948A86",
"Z  c #968D89",
"A  c #9C918C",
"S  c #848D93",
"D  c #8B8F93",
"F  c #908F90",
"G  c #879096",
"H  c #8A9195",
"J  c #8C959B",
"K  c #8F989E",
"L  c #999493",
"P  c #90969B",
"I  c #92999E",
"U  c #9A9B9D",
"Y  c #929193",
"T  c #B28F80",
"R  c #A5948E",
"E  c #AB958C",
"W  c #AF998F",
"Q  c #B2978B",
"!  c #BD9A8A",
"~  c #A69892",
"^  c #A69A96",
"/  c #B49A91",
"(  c #959DA2",
")  c #9A9EA2",
"_  c #97A0A6",
"`  c #9AA1A6",
"'  c #9CA5AB",
"]  c #9FA8AE",
"[  c #A3A9AE",
"{  c #A8A6A7",
"}  c #A4ACB2",
"|  c #A8AEB3",
" . c #A7B0B6",
".. c #ABB1B6",
"X. c #ADB5BB",
"o. c #B1B6BC",
"O. c #B2B9BE",
"+. c #B9BCBF",
"@. c #C29684",
"#. c #C99884",
"$. c #C29C8A",
"%. c #C99681",
"&. c #D09D88",
"*. c #E09D81",
"=. c #C5A18F",
"-. c #DFA58A",
";. c #CCA591",
":. c #CCAD94",
">. c #D4A892",
",. c #D0B49C",
"<. c #ECA98A",
"1. c #E8A689",
"2. c #F2A684",
"3. c #F6AD8B",
"4. c #F3A886",
"5. c #E4B584",
"6. c #F5B08F",
"7. c #E6AD92",
"8. c #EBB59A",
"9. c #E3B198",
"0. c #F4B394",
"q. c #FABB9B",
"w. c #F3BA9C",
"e. c #FBBFA1",
"r. c #D8C3BB",
"t. c #E6C6A8",
"y. c #FCC0A2",
"u. c #ACBACA",
"i. c #AEBAC7",
"p. c #B4BBC2",
"a. c #B9BEC4",
"s. c #B3BDC8",
"d. c #BBC0C6",
"f. c #BCC4CC",
"g. c #B7C0CB",
"h. c #B5C1D0",
"j. c #BCC6D3",
"k. c #BEC8D5",
"l. c #C3C4C6",
"z. c #C2C6CA",
"x. c #C5C9CD",
"c. c #C9CBCD",
"v. c #CCC4C2",
"b. c #D5CDC8",
"n. c #C3CBD4",
"m. c #CACED3",
"M. c #C5CED9",
"N. c #C8CFD8",
"B. c #CCD1D5",
"V. c #CCD3DC",
"C. c #C7D0DA",
"Z. c #D1D3D5",
"A. c #D2D6DC",
"S. c #D5D9DD",
"D. c #D9DBDE",
"F. c #EADBCD",
"G. c #E7DCD4",
"H. c #EBE3DC",
"J. c #F1E7DF",
"K. c #CFD6E0",
"L. c #D0D7E0",
"P. c #D5DAE2",
"I. c #DADEE3",
"U. c #DDE1E5",
"Y. c #DDE2E9",
"T. c #E2E3E5",
"R. c #E3E6EA",
"E. c #E6E9ED",
"W. c #E9EBED",
"Q. c #E9E4E0",
"!. c #EBEDF1",
"~. c #EEF1F4",
"^. c #F3F4F5",
"/. c #F5F6F9",
"(. c #F7F8FA",
"). c #FCFCFC",
/* pixels */
"                                                                                                                                ",
"                                            `                                                                                   ",
"                                            ( S                                                                                 ",
"                                            ] V H                   [ (                                                         ",
"                                          X.) ! Z                 ..` S                                                         ",
"                                          ..^ <.Q                 } J S                                                         ",
"                                          } / 3.;.P             } ( R V                                                         ",
"                                        ..( &.q.>.F            .( ^ $.V                                                         ",
"                                        } L <.q.>.Y         ..( ^ 9.$.J                                                         ",
"                                        ( @.0.y.;.H       } ( ~ 7.0.E                                                           ",
"                                      } L *.q.y.! P     } ( Q <.q.>.U                                                           ",
"                                      ( E 2.q.w.E     } ) $.<.q.8.~                                                             ",
"                                    | P %.6.q.9.L   } U #.4.q.8.W                                                               ",
"                                    } H x 6.q.$.` ..) #.4.q.9.E                                                                 ",
"                                    [ Y c 3.7.{ a.` $.2.0.;.A                                                                   ",
"                                    } F x 2.$.l.} R v -.E Y                                                                     ",
"                                     .J %.c ~ o.J y y C                                                                         ",
"                                    X.' R ! ) P D C V                                                                           ",
"                                      X.` ( [ o.` J P P D                                                                       ",
"                                      o.X.) | W.E.x.] I S ( D.                                                                  ",
"                                      X.X.X.} m.!.G.A.} ( J o.U                                                                 ",
"                                      ..i.X. .} ` . M n.` H B X ) ~.Z.+.+.l.                                    (.!.U.          ",
"                                      | } ' ' [ [ o . +.o.K P H R v.[ o.V.I.A.                ^.(.^.      ^.^.!.Y.A.            ",
"                                        X.x.c.B.Z.c.a.a.+.| [ l.r.b.n.Y.P.A.A.              F.H.W.^.U.^.E.B.c.m.N.              ",
"                                    D.D.T.T.S.x.a.p.p.p.h.s.p.B.V.n.n.N.N.U.        h j l k l b ,.V.E.I.D.b.5.b                 ",
"                                W.^.T.Q.R.T.m.x.N.V.I.R.~.^.S.I.(.W.k.j.L.        k 9 9 0 0 0 0 g G.!.V.z.I.5.q s               ",
"                                    Z.R.!.~.R.E.!.^.^.!.E.Y.V.M.U.V.n.A.            a 6 6 6 g t.J.E.m.>.f d 8 8 4 -             ",
"                                    S.V.N.V.V.L.K.K.K.V.M.k.s.u.u.g.                        H.(.(.Z.:.z z a 7 s t ;             ",
"                                      R.A.C.P.C.M.V.V.M.g. .s.M.h.V.                          !.E.W.E.U.D.Z.      :             ",
"                                                          ' [ A.!.R.I.o.                        P.V.V.A.V.V.      3             ",
"                                                      o.X.X.} ) D.)./.T.a.} X.                    B.N.f.j.  p r > = @           ",
"                                                X.X.o.X.X.X. .K U ~.).(.!.x.` ..o.o.            ..] K I     e e , O O $         ",
"                                            X.X.X.} ] _ K K G S n c.).).^.W.z.J ] ..X.i... ...} ( S S       3 w & $ $ $         ",
"                                      X.o.X. .' K S N N N N N n o o.).)./.T./.[ n J ( ' } ` ( S N J         w < , $ = =         ",
"                                  ..X...} ( J S J J I ( ( ( D S M o.).).^.R./.H.n o N N N N N B (           % % < + % ,         ",
"                                  ` ( ( G B H               ] K N Z.).)./.~./.~.        P J U                 u < O #           ",
"                                  ( S N N H I             o.} S [ (.).).(./.^./.                              i = O             ",
"                                      D N S } ..        O.} K ( E.).).).(./.~.~.                                = #             ",
"                              X.I.N.s.  | P J [ ..X.X.p. .( [ E.).).(.(.^.!.~.!.                                                ",
"                          U.A.p.Q.U.V.D./.D.p.i.s.i.} } ` +.~.).).).(.^.E.R.!.                                                  ",
"                          W.V.n.f.V.d.d./.R.T.U.k.g.( O.I.).).).(./.~.E.R.!.                                                    ",
"                          ^.Y.n.p.p.x.S.W.R.(.W.n.g.B./.).(./././.!.Y.Y.E.                                                      ",
"                          W.^.V.c./.).E.V.S.E.V.h.N.^.(.(./.^.!.R.I.Y.E.                                                        ",
"                          W./.^.I.W.~.U.A.C.f.p.n.E.^.!.W.E.Y.P.K.I.E.                                                          ",
"                      /.^.W.I.V.B.n.x.s.] K s.V.Y.Y.I.P.L.V.V.V.Y.!.                                                            ",
"                  !./.~.R.I.      f.X.' S N n.V.N.M.k.k.k.M.V.A.                                                                ",
"                  R.Y.U.          O.O.] G S d.P.V.C.n.k.n.s.( N                                                                 ",
"                                  o.X.] S H           +.} ( J S (                                                               ",
"                                  X.X.] S H             o.p.} ( H `                                                             ",
"                                  O.O.' S K               o.O.} J H `                                                           ",
"                                  X.X.' S K                 X...I N H                                                           ",
"                                  X.X.' S J                 X. .( N B [                                                         ",
"                                  o.X.] S S [             X...' S N K                                                           ",
"                                  ..X.} J B [         X.X. .( S N J                                                             ",
"                                    X.] J N (   o.X.O.X.' G N N )           ^.^.^.                                              ",
"                                  X.O.] G N K } O.X.} _ S N N J ( I o.E.).).).(.^.W.~.!.                                        ",
"          ^.(.(.(.(./.T.c.+.O.O.o.X.X.' G n S ] d.O.} ( S M M M N o.~.).).^.^.(.~.P.L.Y.U.                                      ",
"      ^./.^.(.).).).).).^.D.d.o.X.} ' J N M S +.S.S.m.d. .` J P c.(.).).(.E.L.U.!.E.M.N.C.                                      ",
"      !.R.^.).).).(.(.).).).^.x.` J S N N ( d.U.      Y.I.P.P.U.^.^.^.^.!.P.k.j.N.n.h.n.N.                                      ",
"    I.A.I./.).(.W.W./.).).).)./.Z.} `  .j.P.R.              I.P.S.A.V.V.M.j.h.k.n.u.k.A.                                        ",
"    A.V.K.~./.A.P.~.).).).).).).^.E.Y.Y.R.                              V.V.L.                                                  ",
"      I.V.P.K.j.K.P.!.~.^.W.Y.P.P.P.                                                                                            ",
"          I.V.f.L.V.V.V.K.V.L.P.                                                                                                ",
"                                                                                                                                "
};
