/* XPM */
static char *_e2a5b73ed3d408bce7354f704d495f3riaH2poD0tSuLKR2[] = {
/* columns rows colors chars-per-pixel */
"64 64 129 2 ",
"   c None",
".  c #040301",
"X  c #000B03",
"o  c #110803",
"O  c #001505",
"+  c #091405",
"@  c #001C07",
"#  c #001F08",
"$  c #241207",
"%  c #2D1709",
"&  c #2F1809",
"*  c #32190A",
"=  c #3B1E0C",
"-  c #012409",
";  c #012B0A",
":  c #00340D",
">  c #003B0F",
",  c #003F10",
"<  c #401F0C",
"1  c #49250E",
"2  c #4F2910",
"3  c #542A11",
"4  c #592C11",
"5  c #463412",
"6  c #5E3013",
"7  c #623114",
"8  c #693515",
"9  c #723916",
"0  c #7B3D18",
"q  c #004411",
"w  c #004B13",
"e  c #005315",
"r  c #005A17",
"t  c #005F18",
"y  c #006419",
"u  c #006C1B",
"i  c #01721D",
"p  c #007A1F",
"a  c #017D20",
"s  c #7E401A",
"d  c #803F19",
"f  c #84411A",
"g  c #8D471C",
"h  c #8F481D",
"j  c #954A1D",
"k  c #9C4E1F",
"l  c #9C4F20",
"z  c #9E5020",
"x  c #A45221",
"c  c #AB5522",
"v  c #AF5823",
"b  c #B15723",
"n  c #B25924",
"m  c #BB5E26",
"M  c #C36127",
"N  c #CC6629",
"B  c #D06729",
"V  c #D4692A",
"C  c #DC6E2C",
"Z  c #E06F2C",
"A  c #E4722E",
"S  c #EB742F",
"D  c #EE7730",
"F  c #F07730",
"G  c #F57931",
"H  c #FA7D32",
"J  c #F97C32",
"K  c #FC7C32",
"L  c #FD7D32",
"P  c #FE7D32",
"I  c #FF7D32",
"U  c #FF7D33",
"Y  c #FC7E33",
"T  c #FD7E33",
"R  c #FF7E33",
"E  c #FE7F33",
"W  c #FF7F33",
"Q  c #FE7E33",
"!  c #008020",
"~  c #008021",
"^  c #008321",
"/  c #008422",
"(  c #008522",
")  c #008622",
"_  c #008722",
"`  c #008823",
"'  c #008923",
"]  c #008A23",
"[  c #008C24",
"{  c #008F24",
"}  c #009025",
"|  c #009125",
" . c #009326",
".. c #009526",
"X. c #009726",
"o. c #009827",
"O. c #009927",
"+. c #009A27",
"@. c #009B28",
"#. c #009D28",
"$. c #009E28",
"%. c #009F29",
"&. c #00A129",
"*. c #00A229",
"=. c #00A22A",
"-. c #00A32A",
";. c #00A42A",
":. c #00A52A",
">. c #00A72B",
",. c #00A82B",
"<. c #00A92B",
"1. c #00AB2C",
"2. c #00AC2C",
"3. c #00AD2C",
"4. c #00AE2D",
"5. c #00AF2D",
"6. c #00B02D",
"7. c #00B12D",
"8. c #00B12E",
"9. c #00B22E",
"0. c #00B32E",
"q. c #00B42E",
"w. c #00B52E",
"e. c #00B62F",
"r. c #00B72F",
"t. c #00B82F",
"y. c #FF8033",
"u. c #FF8034",
"i. c #FF8033",
/* pixels */
"                                                                                                                                ",
"                                                                                                                                ",
"                                                                                          > y w @                               ",
"                                                                                        p =.0.5.a >                             ",
"                                                                                      q ,.0.5.0.r. .,       - O                 ",
"                                                                                      e 5.0.0.5.0.0.[ ;   #  .r                 ",
"                                                                                        p 0.0.0.5.0.0.a - e 5.u                 ",
"                                                                                        - [ 0.5.0.0.5.0.#.<.r.)                 ",
"                                                                                          w ,.0.0.0.0.r.0.0.r.a                 ",
"                                                                                          q =.r.:.p u ..<.0.0.r                 ",
"                                                                                        w #.0.,.r     @ q [ r.y                 ",
"                                                                                        r r.0.p           @ a u                 ",
"                                                                                        - y w               @ i ;               ",
"                                                                                            > @     @ @       r a :             ",
"                                                                                          q ,._ e   r _ ;     : <.[ -           ",
"                                                                                          ; +.r.#.: y r.y     e 0.:.:           ",
"                                                                                            w [ r.o.#.r.u     ! r...-           ",
"                                                                                              - a 0.0.0.y   e ,. .q             ",
"                                                                                                : =.0.0.y O _ p -               ",
"                                                                                                  ~ r.=.q y u                   ",
"                                                                              % * 1             ;  .[ u i > X ; w y r -         ",
"                                                                        o 4 j B A A b *         e p e i q w p +.:.r.0.+.e       ",
"                                                                    3 4 k S R R R R R v $     @ r i y y ..0.0.r.0.0.0.0.5.u     ",
"                                                                4 v V c H R R R R R R R j . : e u y  .0.,.0.6.:.:.0.0.0.0.:.:   ",
"                                                            & k A u.M m R K R R R R R R A 5 y r u [ u e w <.=.: r 0.0.5.0.0.r   ",
"                                                          6 B R R y.j M R R R R R R R R R v + q ; @     @ ~ q   w ,.0.0.0.5.e   ",
"                                                      $ j S R R R R v j R R R R R R R R R A %             #     t 0.0.0.0.=.:   ",
"                                                    3 M R R R R R R S m K R R R R R R R R R 0                   y 0.0.,.<. .    ",
"                                                $ f A R R R R R R R R K R R R R R R R R R y.g                   ' 0.0.y q w     ",
"                                              4 m R R R R R R R R R K R R K R R R R R R R R c                   _ t.@.;   X     ",
"                                            0 A R R R R R R L R R R R R R R R R R R R R R R v                   > r w           ",
"                                        * n H R R R R R R K G R K R R R R R R R R R R R R R k                                   ",
"                                    6 2 x R R L R R R R R R B F R R R R R R K H R R R R R S 8                                   ",
"                              2 j V S m S R R R R R R R R R k A R R R R R R S N R R R R R x                                     ",
"                          & j C R y.S M y.R J S R R R R R R N V R R R R R R S x H R R J n                                       ",
"                      . 2 N D H R R G C R R A n R R R R R R F B R R R R R R R M m S C f                                         ",
"              * 3 g 9 9 A u.c A R R R R L R C k R R R R R R R R R R R R R R R H m f                                             ",
"    * < 0 g x V S m c J R R x C R R R R R R C z R R R R R R R R R R R R R S V z                                                 ",
"  9 C S F D u.U Z n J K R R A J R R R R R R F n G R R R R R R R R R S B z 9                                                     ",
"    d V C x u.U K K R K R R R R R H J R L L R A G R G C R y.R D V z 9                                                           ",
"        s 7 B A A R y.u.R F V R R S j S y.R y.y.H A B 4 f z j 4                                                                 ",
"              * * 9 f f c C x v Z C h 3 h c g f 0 = *                                                                           ",
"                      .             *                                                                                           ",
"                                                                                                                                ",
"                                                                                                                                ",
"                                                                                                                                ",
"                                                                                                                                ",
"                                                                                                                                ",
"                                                                                                                                ",
"                                                                                                                                ",
"                                                                                                                                ",
"                                                                                                                                ",
"                                                                                                                                ",
"                                                                                                                                ",
"                                                                                                                                ",
"                                                                                                                                ",
"                                                                                                                                ",
"                                                                                                                                ",
"                                                                                                                                ",
"                                                                                                                                ",
"                                                                                                                                ",
"                                                                                                                                ",
"                                                                                                                                ",
"                                                                                                                                "
};
