/* XPM */
static char *_3dc9232f81748fbcefb2ea5f9441086EeaqTyCaN4uvKXFs[] = {
/* columns rows colors chars-per-pixel */
"51 51 63 1 ",
"  c None",
". c black",
"X c #070504",
"o c #120B07",
"O c #110E0B",
"+ c #1D130E",
"@ c #1B1715",
"# c #211310",
"$ c #231512",
"% c #271B15",
"& c #2E1E16",
"* c #211C19",
"= c #2C1F1B",
"- c #35241B",
"; c #30221E",
": c #2A2321",
"> c #2F2A28",
", c #342723",
"< c #342926",
"1 c #3A2A23",
"2 c #36302F",
"3 c #3D312C",
"4 c #3C3636",
"5 c #423027",
"6 c #4C3A2F",
"7 c #433530",
"8 c #453733",
"9 c #493A37",
"0 c #433E3C",
"q c #483B38",
"w c #4B3F3B",
"e c #50403B",
"r c #494543",
"t c #504440",
"y c #534743",
"u c #5A4A42",
"i c #564E4C",
"p c #5A4D4A",
"a c #5F514C",
"s c #595554",
"d c #614F47",
"f c #675650",
"g c #6A5B57",
"h c #6A5C57",
"j c #605958",
"k c #695D5A",
"l c #705F58",
"z c #6C625F",
"x c #73635E",
"c c #6A6563",
"v c #766761",
"b c #7D6B64",
"n c #756D6A",
"m c #7D6E6A",
"M c #7D716C",
"N c #84736C",
"B c #877872",
"V c #827A76",
"C c #8E7D77",
"Z c #92837C",
"A c #998A84",
"S c #A1948E",
"D c #AD9F9A",
/* pixels */
"                                                   ",
"                                                   ",
"                                                   ",
"                                                   ",
"        ##=      ###                               ",
"       <777e   p7;119p                             ",
"     qejayaey8<,;&,3e97yy799e999y98                ",
"     BSVcNhf3$++%&133;&1,&&;;;,799ym               ",
"    wADSmMMz;;%$$$,1&%,3&;,111111179a              ",
"    yiZZseiq;-%+$$&-%&1-%---&&,-,7797e             ",
"    eavn1%*%%-$+$%1-&-1&&-------16e7339eee8        ",
"    3ee317<%%:$++&71---&&-1---1-55515739vSm        ",
"    7fy%13,%***@@,1-&&&$&11-&--&576e69yfNZm        ",
"    l7;*,%$*@**@:,-&&$++&;;&&-&&116dduuanBg        ",
"    v;$$$$+@@**@@*++++OO+@+OO++-515ufueaBAg        ",
"    h73,:,:*@@<4>O..XX........X%115766uhhMm        ",
"    *;33r0:*@>r2@..............X$-56dle6uhvz       ",
"    o%+;i2:*>0>@X...............X%56uld669enz      ",
"    w93ay22242:+.................X%56ee66993ey     ",
"     7aa70r0442@...................*5555e651,19    ",
"     f9,7rr440>@...................X%--1551,1alp   ",
"     vfxu02>242@....................O;%&---3aBZk   ",
"     hha,:*>22>@.....................O%;11-ybvlk   ",
"    w9y7e3>>:>>@.....................X+;;%&5ufff   ",
"    <%;,922>:>>@.....................X>7,,917dau   ",
"    ;19fi2::>2>O....................X4ayfnvdeflu   ",
"   qavBxi42::2>X....................@anxBACNblxx   ",
"   =xMbhy>:>244@....................*efxASSSAZvb   ",
"   =y9ya2::0jcr:...................X2ulbZSSDDABC   ",
"   =77xh2:ycnj0O...................*anxbBASADSAA   ",
"   =uMMi0rcncir>O..................>aNbNZAASDSAB   ",
"   wMxhvcjjccsr02:X...............O3abvbNCbNCSAp   ",
"   we9eiayicni0>4r2:O............X@3alffxbxe9BA    ",
"   #+$$;9ijncr2:rjii4@..........X373euflddhe%j     ",
"   =;;+$7aiji4:2jsscsi2*@O.....X>if911fNdeuf9w     ",
"    zpkjxleyr02ijijcccsssi4@...O0ahae6ulxafMk      ",
"        ge33440cjirrivnMncj0*XO*7hlbxufCSAf        ",
"         a,;,>icr4*3uhVVcsccr:473dNAZxNADC         ",
"         k9,1,yiy00hMbNCccnsr09eudbASBNAm          ",
"          9;*&9jnjnVBBCVMVs40jauddeNSCCz           ",
"          9$O&hVsrjVZZAVVVjjscMvbNdvAbm            ",
"          7%3uvVyyjxMBZjhVjjcVBNCZCASCk            ",
"          >,fbBNxbNbbCZcaacVnBZNCCCACb             ",
"          <9MNZCNBCZAAZi3iVAnCZCAbbSAm             ",
"           yCNNBmmBZSSZahCZCCBNZSf7SD              ",
"            zqq    gAACMvAC93duvBd1Mz              ",
"                    gNbfhABe7elbfu9q               ",
"                     8888pz  zpwwp                 ",
"                                                   ",
"                                                   ",
"                                                   "
};
