/* XPM */
static char *f06f84ec9dae46f7df3b8fd4f23c6904sApVdyUFb5h07bBc[] = {
/* columns rows colors chars-per-pixel */
"64 64 256 2 ",
"   c #0D4D07",
".  c #0B5804",
"X  c #175B0A",
"o  c #235B18",
"O  c #0B6705",
"+  c #196607",
"@  c #136B04",
"#  c #146509",
"$  c #146C0A",
"%  c #1B6D0B",
"&  c #0D7603",
"*  c #157404",
"=  c #1A7506",
"-  c #147C04",
";  c #1B7C05",
":  c #14720A",
">  c #1C750C",
",  c #167B0A",
"<  c #1C7B0B",
"1  c #1D6A11",
"2  c #1D7913",
"3  c #226E0B",
"4  c #257905",
"5  c #24730C",
"6  c #237C0B",
"7  c #2A7D0C",
"8  c #256A14",
"9  c #247513",
"0  c #2B7414",
"q  c #237C13",
"w  c #2B7D15",
"e  c #28761C",
"r  c #2C7C1C",
"t  c #317513",
"y  c #357D1A",
"u  c #327925",
"i  c #158405",
"p  c #1C8305",
"a  c #1C8A06",
"s  c #1D830C",
"d  c #1D8C0B",
"f  c #1A9005",
"g  c #1F8312",
"h  c #238A06",
"j  c #2A8805",
"k  c #24830C",
"l  c #2B830B",
"z  c #238B0C",
"x  c #2B8C0C",
"c  c #34870A",
"v  c #328B0C",
"b  c #299506",
"n  c #25930B",
"m  c #2B930B",
"M  c #2C9B0C",
"N  c #369906",
"B  c #34930D",
"V  c #3B930D",
"C  c #349B0D",
"Z  c #3B9A0C",
"A  c #258313",
"S  c #2B8414",
"D  c #258B12",
"F  c #2C8C13",
"G  c #2D841B",
"H  c #258818",
"J  c #2D8C1A",
"K  c #338514",
"L  c #398313",
"P  c #338C14",
"I  c #3B8C15",
"U  c #32841B",
"Y  c #348C1B",
"T  c #3B8C1B",
"R  c #2C9313",
"E  c #2A9616",
"W  c #2D9A13",
"Q  c #339314",
"!  c #3B9414",
"~  c #349B14",
"^  c #3C9C14",
"/  c #35931B",
"(  c #3B941C",
")  c #359A1B",
"_  c #3C9C1B",
"`  c #2CA309",
"'  c #34A20D",
"]  c #3AA509",
"[  c #3CA20D",
"{  c #2FA413",
"}  c #34A214",
"|  c #3CA314",
" . c #3AA817",
".. c #3DA31B",
"X. c #3B8523",
"o. c #358B23",
"O. c #328927",
"+. c #3C8E23",
"@. c #3A8928",
"#. c #359422",
"$. c #3D9422",
"%. c #3C9B23",
"&. c #3A9828",
"*. c #3DA323",
"=. c #39A722",
"-. c #419C0C",
";. c #448C17",
":. c #479716",
">. c #429C15",
",. c #42951D",
"<. c #449C1C",
"1. c #4B9D1B",
"2. c #559E1B",
"3. c #44A30D",
"4. c #43AB0D",
"5. c #49A80B",
"6. c #4DAE0C",
"7. c #58B80C",
"8. c #43A414",
"9. c #4AA415",
"0. c #44AA14",
"q. c #4CAC14",
"w. c #43A31C",
"e. c #4BA41C",
"r. c #44AB1B",
"t. c #4BAC1C",
"y. c #56A919",
"u. c #52AB1C",
"i. c #4CB314",
"p. c #48B219",
"a. c #4CB31C",
"s. c #53B313",
"d. c #5AB414",
"f. c #57BB17",
"g. c #54B41B",
"h. c #5BB51D",
"j. c #5CBC1B",
"k. c #65BB09",
"l. c #63B919",
"z. c #458928",
"x. c #439524",
"c. c #439C23",
"v. c #4B9C24",
"b. c #43942C",
"n. c #4B9529",
"m. c #449B2B",
"M. c #4B9C2C",
"N. c #539B24",
"B. c #529C2B",
"V. c #4D8D34",
"C. c #4A9734",
"Z. c #469C33",
"A. c #539C38",
"S. c #44A323",
"D. c #4BA324",
"F. c #45AA23",
"G. c #4CAB24",
"H. c #44A32A",
"J. c #4BA42B",
"K. c #44AB2D",
"L. c #4CAB2B",
"P. c #54A423",
"I. c #53AC24",
"U. c #59AB27",
"Y. c #53A42B",
"T. c #53AB2B",
"R. c #5BAD2B",
"E. c #42B224",
"W. c #4CB223",
"Q. c #4DB22B",
"!. c #53B324",
"~. c #5BB324",
"^. c #54B32C",
"/. c #5BB22B",
"(. c #58BA28",
"). c #5CBB2B",
"_. c #4DA333",
"`. c #4BA735",
"'. c #53A434",
"]. c #53AC33",
"[. c #5CAC34",
"{. c #54A33A",
"}. c #55AC3A",
"|. c #5AA839",
" X c #4EB134",
".X c #53B233",
"XX c #5BB433",
"oX c #5CBB33",
"OX c #5BB33B",
"+X c #58B838",
"@X c #62AC26",
"#X c #63B424",
"$X c #62BC25",
"%X c #69BB24",
"&X c #62B42C",
"*X c #63BB2C",
"=X c #6BBD2D",
"-X c #77B320",
";X c #67A936",
":X c #61AD3B",
">X c #63B434",
",X c #63BB33",
"<X c #6BBC33",
"1X c #63B43C",
"2X c #6BB43B",
"3X c #64BB3B",
"4X c #6CBC3C",
"5X c #73BC39",
"6X c #5AC01D",
"7X c #67C31B",
"8X c #72C61A",
"9X c #5BC126",
"0X c #5DC135",
"qX c #69C525",
"wX c #64C32C",
"eX c #6AC32C",
"rX c #73C22D",
"tX c #74C829",
"yX c #7BD424",
"uX c #65C334",
"iX c #6BC335",
"pX c #68C637",
"aX c #6CC23C",
"sX c #77C937",
"dX c #73C43B",
"fX c #7CD23A",
"gX c #59A942",
"hX c #5CB543",
"jX c #65A843",
"kX c #64B443",
"lX c #68B747",
"zX c #6CBB43",
"xX c #73BB49",
"cX c #64A050",
"vX c #6CB752",
"bX c #76BA57",
"nX c #6AC443",
"mX c #6CC44B",
"MX c #77C446",
"NX c #74CA43",
"BX c #7CCD44",
"VX c #74C44B",
"CX c #7CCC4C",
"ZX c #7AD143",
"AX c #73CA51",
"SX c #79C856",
"DX c #82D038",
"FX c #81B84F",
"GX c #81CD48",
"HX c #85D646",
"JX c #84CC57",
"KX c #86D455",
"LX c #94DB59",
"PX c #8AD664",
"IX c #92D86D",
"UX c #99E272",
/* pixels */
"5.E.r.) ].[ S.s - K.nXE ) ) } `.D m &.t.g.fXl.r.*.}.=.E.0.x.A J.I.qXCXSXe.BX;X,.J.~.q.h D.lX>XZX>Xr.UXJX$XVXzX@.<.<.>.V U.T.V 8.",
"0.~ /.B u.[ Q Z.= k _.r.Y.Y.c.8.^ 8.}.6 Z wXe.S.H.oX) ^.&.r g =.[ ] eXMXsXGXxXJXB.e.^.M.vXJXLXDXg.&XSXLX&X:.B.A m T l N [ /.1Xt.",
"Q.F.r.i.s.q.a...6 - _ w.C <.H.^ | 4.g.F C Q r.r.K.F.K.vX/.x Q T.b  .3.5XsXBXPXNX#XrXV.X.lXGXHXMXI.uXzX<XR.GXSX> T '.K 4.l.e.<X>.",
"I.I.p a 0.F G k Q C m ) ^ ( T 9 5 8.>.~ s } E.g.;.w.w.w.I.ZX=XNXS.r.,XfX@X>XjXKX*XqX2XGXsXJXaX7XKXLX~.e.XXeX5X1.R.B.D.[ B c.XX:.",
"%.M.E ! Q i g R ^ ^ ; j K Q 8.L c.#X>.^.}.!.^ ~.[.1XY ) =.lX) M D *.XX~.N.5X5Xy.,XJX:XHX>X1XCXd.BXdXkX*XrXGX;.#XtXLXxX-.1.%X8.g.",
"- C.Q.1 5 S W. .t.t.~ V ( _ 5 p ~ T U +XkX$Xs.4X5XuX).mX^.+X9Xr.S.x.3XG.jXKXDXjXiXdX+Xa.OX7.*X{.aXT.w.oXdXe.R.VXsXKX<X@Xd.qX*X~.",
"S 5 8.c.N r.0.; j Q m m 0 M.x.r.4 Y 0.n | w.w.'.^.{ mXuXuXNXqXg.( q.B [ NXG.h.>X>XuX*X| NX5.qXXX.X%.D nXg.j XXVXh.R.#X:.<X~.4X<X",
"G B n l Z m 3.c P q J 4 7 4 w e.k k B j <.J G 1X$X3XL.p.W r.%.G n.j.S.' v ; v.=X~.VXPXg.aX9.!.sXaXr.E I.3.N.VXGX#XtX=XrXfX<X;.x.",
",.^ I.>.~ E <.3.>.w <.x ) F ,.P C J.lXN ^.m.>.aX[.Y.nXZXXXT.~ S.d.u.*X8.m.Y hXe.J.].fXt.,X$XS eX8XiX).L.S.f.DX<XY.zX#X*X8.%XN Y ",
"..5 L = A u / g 7 1.! P v /.J.^ w r.aXm.T.uXf.6XpX} G.H.q.t.^ 9.B q wXj.KXp.~.VXhXOXwXr.r.9X) 7 W.SXDXCX.XD !.fXHX:X9.,XQ a.D.I.",
"R m.S.r S <  X@.3 8.D ).!.J.G.U b.mXqX*X.Xx.G.k.7X8.8.! ,Xu.c.8.%.Z.a.T.NXW.w.).AXnXXX).[ ^.NX~ #.g.7XHXQ.OXXXl.y.%XGXDXg.h :.y.",
", p w X...W D E s R T k % / ^ b.1X<Xs.l / oX .I.B S lXAXnX@.+XE.( {.nXe.K.F.F.DXJX&.0XwXuXL.wX^./ A +._ a.%.M.z.w GXPXLXd.Z c @X",
"< ) t.K ).T.! 3X| | P 6 l z t.nX.X) P >.OX+Xt.g.S.o.1X|..XmXPXNX$.gXzXz.SXhXoXf.(.W =.SXvX0X0XSX+XhXPX`.8.~ c./.rX:XVXBX,X4X<X>X",
"G.R / Y b.N ! uXD.D.(.Q v k ^  .lXr y <.#X9Xa.~ ~ +X .r.n #.D.] oXA.|.( A.) t.oXtXXXpXmX~ XXpXoXa.G.vX( q.Z.J.<Xl.%XHXj.~.iX<Xl.",
"l 5 Z dXK ( _ ) Q /.! q A D G $ A U #.C D. .S.Y < c.AX} M 6 b.r.NXL.0.F.XXG.x H.*X=.~ 9X} S kXS.t.Y.w.<XZ `.lX<X2X}.h.3.! <XoX*X",
"+ 9 c.oXe.G 0 ( 8.| J 9 < Z.o.O 5 R k k / g.zX/.Q P.aX<Xg.V +...%.*.L.Q $XY.A.`.b.lXH..X~ oX4XS.w.>.uXtXD.].OX9.1.lXh.&Xs.l.S.0.",
"T x.P w.| x | p > p j 6 J J ( >.>.$.X.P J H.q.q.8.[ g.5X3XT.r d !.D.W.^ ^ SX[..XH.E mXSX(.i.g.*X..f.fXzXIXlX`.#.M B I.JX7X| L P ",
"w...; e c.I.=.} U x 4 % O ..).8.(.S.| i.I.].e.r.,Xq.Q Y.uX(.b #.fXHXbXVX3XzXh.oXt...Q.7Xa.m w./.T.z [ SXIXH.E d h v jXJX8XI {.[.",
"<.c.A Q _ E i =.^.T # A F z.S.{ >.T.c.N N 1XC.a.G.P.aXg.~ | s.t.L.e.h.KXVX3.l.K.gXp.+X<.n n k +.q > C ZXLXbXx.m * v.IXI.tXrX~.&X",
"; Q c.q ; & O n $.Y Y Y z.w (.(.s.Q G 4 q.iX$XdXn.v.pXs.) s.3.s.$X~.| M.m.W.XXD.SXp.<.C Q.OX5 >.R.;.s...T.>XG.~ '.H.MX=XZ tX1X&X",
"Z l Y < . O . p ; W | = O.hXS. .&.].! t 1.q.0.D.R./ ,XrXhXq.T F.r.C 4XSXXXF.XXo.aX).M.D.c.SXU.qXBXJXB.x.MXP.+._ lXB.4 ]...I.zX<X",
"3._ ) o., - N - < A W W *X) &.v.Y ) # ,.t.;.VXHX(./._ B ~ T [.&.%.oXF.F. .uX{.}.W.oXCXlXe.$X/.!.!.T.zXc.tXDXsX,X#.XXh e.*XdXNX9.",
"&.%.^.J.@ z ; # n X.J *. .= J @.1 < ( G.[ M.2Xv.~.aX{.#.!.zXB.V.H.uX& R p.w.&.G.s.~.E.H [ w.e.*XL.VXUXJ.qXnXCX*X( 1X&Xw.#X>.m s.",
"&.^.x.X . D ( J X P F k $ 8 q > = oX9X~ k ^ > = <XNXI.1XSXt.( aX(.W.w &.XXS.].H.0.,XG.~ k.6XqX+X} D.kXlXjX,XZXCXzXCX>X>XsX>.< v ",
"X $.w.# K } F A > d #./ S. X&./ l 8.D.G.( ( +.q.f.aXCX}.wXf.} eXlX`.fX!...t.e.-.T :.G...] 0._.OX/.$Xc.w.|.#Xt.$.H.<X4X<Xg.9.xXL ",
"& : < : < M a n 7 ; e 9 D E *.1 @ a l ! gXc.) gXJ.F.W .X} r.oX/.S.^.W.pX% J H./ Q =.D '  .vXlX].q.v.1XzXS.HXVX_ 4XKXT.R.y.R.IX2X",
"f > z ..) E W #.d ; k w / A M.:Xi n z ; } #...&.{.bXZ.C.g | ! R 1.z < #.) `.C.^.J A D a ` D..X*.P I [ 7XXXCX%.oX:XmX~.7.8X&Xe.l.",
"- Y ].x K W *.G.h ' [ k _ > K.oXo.< ..x b i M F R gXmX{.{.+XlXY #.S.Y o.H.AXr &.<XwX(.E. .C #.{._.W.!.qXB.SX{.9XzXG.!.8.g.@Xv.N ",
"X k Z.) 5 8 + $ k N O.r T 9 ) B >XxX.XS.H.v p.kX_. XoXwX,X/ m., Q Q w #.G D ~ T 5 P W E.uX^ / O.}.&.0 U.,XzX#X3.+.^ b v.c.[.[.,.",
"6 G q s & h A < x.5 V.V.G ..B : / U ..z Q I (.3XhXOX_ oX3X+XQ 7 B.!.G.Z.~ 6 0.Z.L.`.vXmXI.[ 1.aX^..Xx P.*XaX(.x >XD.j ,.H.XX<X&X",
"n H.( = O z ..E > 5 o 8 M.w.~ $.h q ! b ` t.).K C.D.!.K.%.r.X T.zX]. XQ %.&.D.&.].~ [.%.! I.sXqXW...w 2 % R uX!.).Z ] w.t.F t.I ",
"b F T $ ~ m S./.9.3 @ ^ ~ M M ) m &.H n ' ^.m.. V.cX%.Q k w.1.q.E L.=.`._. .t.E }.3X8./.cXb.~ _ G.}.q P Q s 4.t.t.nXT./.dXU.zXzX",
"8.# x.q A D.7 y e.x s < O %.( ; #.b.j ^ oXgXL._ &.&.`.G @.L.j ' o.K.) w.wX%.W )  XlX) =.#.H.#.{ J hXT.^.C k h 8.L.!.q.[.>Xt.Y.V.",
"- H x.U % ^ z P I < 8 x.2 0.f.t.U.bXQ.m ^.&.%.XXE.S ~ hXvX|.> d G b.^.S.mX}.m J Q F.E hXd J ^.a.Q.!.4X,X[ x s ^ '.) G 8 U XXbXVX",
"= # Q ) v M / F @ , x.iX+XpXtXC  XJ.C n =.` } G.b.C.lXr &.|.&., s 1 s =.E { (.>.0.t._ XX$.I.Y k zX*X..F.E G.XX}.|.MXt.$.Y _ .X/.",
"c 0 P.tX0.L.P % c b m e.! OX)  .E.! P lXnX .<.|.T +.kX1 R | aX8 X b.#.H L.{ a.C D Y 1.r.KXOX/.>XgX'.3X}.zXaXj.,XxXzXdX4XG.I 7 j ",
"6.X 8 u n Q.Q . $.0.fX! 7 5 [ ^ $.n.M.z.'.R e bX}.< C.nXM ^.nXe.r o.{./ K.^.'.B .XL.*.w.CXm.=XNXc.J.XX3Xq P *X*XI.P.zXd.e.,.t + ",
"7 X 6 5 j W $ - K ~ '.].j 8.C % X.z i :.,.: z KX4Xt.K...` K.0XP >XhXOX4XhX(.XXr.` wXm. .F.3Xd.uXL.c.2X$Xe.q.dXzX4X<.T d.[.}.V O ",
"&.4 j x j = 1 % 5 / ].u.1.B ' 1 Y &.S c.%.Z.x kXSX+XM x.f.#.(.zX1XZ.S.=.L.i.u.3X).*X{.i.(.wX=X*X).{.xX^.~.~.zX%.C e.`.OXm.! h ~ ",
"#   0 n . 1 G *.Q $.8 9 F z  .,Xz s = t.zXD.h H O.=.W g M.+.H m.gXH.B.^ x N b R !.+.&.^ nXD.#X7 ;XlXb.<X/.^.^./ | ).bXA.u.9.>XI ",
"  > q # @ & < L.q.(   u Y c W &.m.P D.m.b.8 R d , &.L.S.@.{./ K ^ C 4 J.e >.[.^ 8.G./.I.+X(.~ I 5XeXL.VX8.~ C dXlXy :XkX5XFXxXv.",
"X S.< 6 x J +.R B k v r D.6 D W e.I J < i H H.H.H.P.Q.`.T n.$ D 6. .D.+XL.).a.! ^ (.^ t.x.].qXh.5Xl.R.:.d.XXr.iXrX0 e.&XsX=X|.@X",
"8 z < <. .r.S B ^ k - - `  .0Xe 7 6 J H.} P `.}.R m W G lXJ.<.(.| 3X( T._.w.p.F.) #.; Q I ,XVX=XN.P.N.L h.tXl.I.*X}.x.&X~.u.BXsX",
"# W =.b.m b 5.8.B.^ / q.w.oXx ! h %.`.~ ^.&.}..XoX; ^ @.t./.^.b % zXP.r x.k W.4XzXc.B.K N x.`.( zX2X:X:.v.8.V 6.4XmXH.zXw.:.| JX",
"p O } G.h > c.S.X 6 o.c.X.e.V N v G =.S.E.mX].#.SXX.A.J E f.r.f.!.HXwXJ.< :.0.9.q !.uX*Xx.SXjXM.S 7 -.e.GXq.y.<XKXT.<.&X,.v.8.Q ",
">.K.n M n F. X~ k 6 k = F B M b w , b A m ^ D.gXhXe bX{.Q.E 1X#X!.dXi.f.F.} m s.F 7.] 9Xe.U.XX~.qX9.*XtXqXl.;X! w.~ <.#X:.~.Y.6 ",
"Z ).) Y.P G.(.r.0.x Q = c P @ l P.).nXI.2 : OX/ T x.A K &X .(.(.>XU.(.8.S.Q  .i.wXs.c.c 9.t.c.^.zXP.^ I.,X~.zXU..X}.8.&X@X&X| k.",
"h x @ Z.J.6 S.d - P | S | S.M.U.+.t Y w # U ! M.0 x.e U.iXP.].hX>Xm.p.h.gXn.' U.~ } F.9.;.^ K.*X,.@Xc.[.>Xe.>.z.J.J *X5.1.I =XdX",
"4 > S C.G   T p & S.0.O d W <.) Y L R.L.I.j Y.+.x z.A.|.}.1.e./ &.9 zX^.D.sXM.xXS.e.].j.h.G |.U.u.fX] 8.b 6.l.8 Y v.d.1.h.j.sX*X",
"7 < Y $Xx # A ; 4 $Xx.% c.M R Q 8.kXaXp.!.! v.0 6 hXJ X e ( >XG.V.m.r.v...0.%.XX~ 9.].fXdXB.}.Y g.y.7.v.' q.I.B.rXN.;.y.6.B =X1.",
"x a s ~ 6 p * > j ! s / J %.> $ 8.nX}.G.j.$Xv.Y L ) &.X.S T.[.; @.*.6 l 5 M.^ ,X8.J.{.wX^ z D I g.t J. .D 9.j.#X-.z y.5X5.1.e.JX",
"8.L.q.R q V j h.yX6...XXw X.) } S.m.) P ^ z.P Q ! >X,XY T.) ~ < D } b k <.,XH.] r.A ) 0.j.q.[ Q :X:XD a < x d.yXW.%.5X@X;X2Xy.8X",
"S <.>.X @.l a.pXY.K <.S.T.v.s ' *.W.( S.} c.R X.$.B.dXx T.#.n ^ !.&Xs s K.c.B.Z wXQ.<.@ N Z 5.BXbX;X<.!./.B 3.] oX&X%Xl.-XFXP.d.",
" X^ q G s 6 k ..m x Q q.x.T.P.E F 9.n &.A.c.) _.:XI.L V <.`.G R CXVXg J.&.%.Q q ) gX2Xv.J <.3.u.GX@XJXKXDX8.z ~ q.dXDX-X-Xl.5.3 ",
"nX>.l h ..[.8 & M G.( >.~ ..~.uXU.E r.}.w C C T ^ r.M.G.) S b.W w.D S..XnX . Xr o.H.@.kX:XP.h.q.7.5X;Xy B.n.v.V ^ HXLX#Xl.6.;.4 ",
"<XM.% ) Y T >.( 0.<.e.R ( 9 G ^.=.s a w _ uXD.6 t.F @.T.XX|.x.U y m q v |.W..X$.C.T 6 ^.!.zXe.E.%XzX1.c z.P.y.;.;.7.rXsX&Xv.>.:.",
"7 6 O g #.* U m M b [ [ , 6 J.n R +.R S D...} G $.b A U k ) w.;.w <.B.'.% Z ).m t.a.< P sXKXF.:Xl.x.Z :.eX~.-.tXy.d.l.k.>X| [ n.",
"i k O @ C v.}._ ^ ' 0.: z.3Xa.C / 1.n J zX+XQ q Z.P b Q } Q jXb.,.l 3 ]./.I {.M.zXQ <.B.!.wXfXOXGX~.e.,.3.>Xy.1.h.@XDX-XdX>XZ ;.",
"> S.E D ; D.w.L.Q | M z W...Q K VXnXQ.- m Q.H.c.H.r.i.Q ! n < $.T q.$XP.>X,.B.e U ! zX<X>.s.fXm.:.l 4 1.! 8 y./.! y.;XDXP.=X9.N.",
"3XW f F : . ..L.) ; ; ) U m Q ^ H.#.x = = r.| b I jXR z B Y T.@ @.Q t.C.w N.>Xy.2.! (.P.0.Z nXC a 3.:.x.@XN.B ^ x q.%XxXI e.d.%X",
"J : O # m j j S a i @ O i x / hX; p a i.^ s m m t.:X8.t.~.G ( % n.#X].b.+ B.OXU.2.9.4X,.1.^ S.x ' s.l.l V 2.U.9.9.>.d.,X~.U.1.7.",
"6 O l >./ ! * m.g z J S i ; < r D d = (.eXE Z.v.c.U s.v 4 ! I K L T ,.u.c ! ,.L ,.I.jXV.B.>.Q 6.U.Y.xXX.4 9.8.c v.9.t.u.D.( <.uX",
"  I >.p ~ :.: 0.z > x h m ~ =   h d s CX/.OXmX[.T.! y x.c L S.! I C.lX,X}.m 9.v rX;XxX;X@XU.w.3.D.B.;X~.9.Z e.x.P I.P 8.,.Z | +X",
"c -.< M ^ ~.S a ) ; S n u.V * j b i : C.q } <.:.v ^ T U.<X<.>.1.! T &.w.G.NX>.L d.@XGXdX] <.XX8.[.A.V q.c 9.kX;.<X>.v.=X2XD.N [ "
};
