/* XPM */
static char *_2472fd09a4144bf9404eb1b81ceb06bhcZuRVLy5Hc6OwNn[] = {
/* columns rows colors chars-per-pixel */
"64 64 14 1 ",
"  c None",
". c black",
"X c #315C2E",
"o c #823737",
"O c #C40424",
"+ c #9C5B4E",
"@ c #6F8F44",
"# c #FFF200",
"$ c #F2AE61",
"% c #F7AB79",
"& c #3F48CC",
"* c #FFDEB8",
"= c gray83",
"- c white",
/* pixels */
"                      ..................                        ",
"                     ....==============....                     ",
"                    ...===================.                     ",
"                    ..====================..                    ",
"                   ..======================..                   ",
"                  ..========================.=                  ",
"                  ..========================..                  ",
"                  . =========================.                  ",
"                  .==========================.=                 ",
"                 ..==========================.=                 ",
"                ...==========================.=                 ",
"                ..===========================.=                 ",
"  ....          ..===========================.=                 ",
"  .XX...        .============================..         ....    ",
"  ..XXXX...     .=============================.       ..XXX..   ",
"   ..XXXXX..    .=============================.=      .XXXXX.   ",
"    ..XXXXXX.   .=======....=======....=======..   ...XXXXX..   ",
"     ..XXXXXX.  .=======.OO..=====..OO.========.  .XXXXXXXX.    ",
"      .XXXXXXX...=======.OOO..===..OOO.========. .XXXXXXX..     ",
"      ..XXXXXXXX. ======.OOOO.===.OOOO.====== =.XXXXXXXX..      ",
"       ..XXXXXXX..======.OOOO..=..OOOO.========XXXXXXX..        ",
"        ..XXXXXXX.======.OO-OO...OO-OO.======..XXXXX...         ",
"         ..XXXXXXX.=====.OO--OOOOO--OO.====..XXXXXX.            ",
"          ..XXXXXX.=====.OO.-OOOOO-.OO..===.XXXX...             ",
"           ...XXXX.=====....O%%%%$$.......=.XX...               ",
"             ...XX.==....O..%%%%%%%$OOO.....XX..                ",
"            ....XX....*..OO%%%%%%%%%%OO..*..XX$$.               ",
"           ..$$.XX..**..OO%%%%%%%%%%%%OO..*.XX$$..              ",
"            .$$$XX..**.OOO%%%%%%%%%%%%OOO..*XX$$$..             ",
"            .$$$XX..*..OOO%%%%%%%%%%%%OOOO..XX.....             ",
"             ...XXX...OOOOO%%%%%%%%%%OOOOOO..XXX                ",
"                XXX@.OOOOOO%%%%%%%%%OOOOOOOO..XX                ",
"                XXX..OOOOOOO%%%%%%%OOOOOOOOOO..X                ",
"                .XX..OOOOOOOO......OOOOOOOOOOO...               ",
"                 ...OOOOOOOO..###..OOOOOOOOOOOOO.               ",
"                 .OOOOOOOOOO..###...OOOOOOOOOOOO.               ",
"               ...OOOOOOOOO..######..OOOOOOOOOOO..              ",
"               .OOOOOOOOOO..###+####.OOOOOOOOOOOO..             ",
"               .OOOOOOOOOO.###++++##..OOOOOOOOOOOO..            ",
"               .OOOOOOOOO..##++++++##....OOOOOOOOOO.            ",
"               .OOOOOOOO..++++++++++++++..OOOOOOOOO.            ",
"               .OOOOOO..++++++++++++++++ ...OOOOOOOO.           ",
"              .OOOOOOO.++++++++++++++++++  ...OOOOOO...         ",
"             ..OOOOOO..++++++++++++++++++    ....OOOOO..        ",
"           ...OOOOOOO...+++++++++++++++++       ..OOOOO..       ",
"          ..OOOOOOOO......+++++++++++++...       ....OO..       ",
"         ..OOOOOOO....&&&..+########+++.&..         ..OO..      ",
"         .OOOOOO......&&&&..##++++##+..&&&...-       ...O.      ",
"       ...OOOO......o.&&&&&&##++++##..&&&&....         ...      ",
"       .OOOOO..  .ooo...&&&&########&&&&&......                 ",
"       .OOOO..  ..ooooo..&&&&&&&&&&&&&&&..oooo..                ",
"       ..OO..   ..oooooo..&&&&&&&&&&&&&&.oooooo..               ",
"       .....    .oooooooo...&&&&&&&&&....ooooooo..              ",
"          .     .oooooooooo...........oooooooooo..              ",
"                .ooooooooooo.      -..oooooooooo..----          ",
"               ..ooooooooooo.       ..ooooooooooo.              ",
"               .oooooooooooo.        ..oooooooooo.              ",
"               ..ooooooooooo.         ..ooooooooo.              ",
"                ..ooooooooo..          .oooooooo..              ",
"                 ..oooooooo..          ...ooooo..               ",
"                  ..........            ........                ",
"                  .......                .......                ",
"                   ......                ......                 ",
"                                                                "
};
